<svg width="651" height="300" viewBox="0 0 651 300" fill="none" xmlns="http://www.w3.org/2000/svg">
<path d="M208.573 221.749H178.937V274.024H107.082V221.749H0V168.068L111.835 3.65369H178.937V167.225H208.573V221.749ZM107.362 167.225V135.748C107.362 129.845 107.642 121.976 107.921 111.858C108.48 101.74 108.76 96.6815 109.04 96.1194H107.082C102.889 105.675 98.1356 114.388 92.8234 122.819L62.9075 167.225H107.362Z" fill="#FFD4AB"/>
<path d="M421.899 139.401C421.899 187.18 413.791 222.311 398.134 244.514C382.198 266.717 357.873 277.959 324.882 277.959C292.729 277.959 268.685 266.436 252.189 243.109C235.973 219.782 227.865 185.212 227.865 139.401C227.865 91.3415 235.693 56.2102 251.909 33.7261C267.846 11.242 292.17 0 325.161 0C357.035 0 381.359 11.8041 397.575 35.1313C413.512 58.4586 421.899 93.0278 421.899 139.401ZM299.998 139.401C299.998 170.036 301.956 191.115 305.59 202.357C309.504 213.88 315.655 219.501 324.602 219.501C333.549 219.501 339.98 213.599 343.894 201.794C347.529 189.99 349.486 169.193 349.486 139.401C349.486 109.329 347.529 88.531 343.894 76.4458C339.98 64.3606 333.829 58.4586 324.882 58.4586C315.935 58.4586 309.504 64.3606 305.87 75.8837C301.676 87.4068 299.998 108.486 299.998 139.401Z" fill="#FFD4AB"/>
<path d="M650.043 221.749H620.407V274.024H548.553V221.749H441.47V168.068L553.306 3.65369H620.407V167.225H650.043V221.749ZM548.832 167.225V135.748C548.832 129.845 549.112 121.976 549.392 111.858C549.951 101.74 550.23 96.6815 550.51 96.1194H548.553C544.359 105.675 539.606 114.388 534.294 122.819L504.378 167.225H548.832Z" fill="#FFD4AB"/>
<path d="M445.374 251.899C445.374 251.899 447.891 247.964 448.45 243.748C449.009 239.532 445.095 235.598 441.74 233.068C438.384 230.539 430.276 223.794 435.309 220.702C440.342 217.61 467.182 209.46 473.613 204.401C480.043 199.342 480.043 190.067 478.366 186.133C476.688 181.917 458.515 165.897 424.126 165.897C389.736 165.897 348.357 182.76 342.206 183.041C336.055 183.322 336.335 171.799 336.335 171.799L335.496 165.897H312.57L308.935 171.799C308.935 171.799 310.333 179.669 303.902 180.512C297.472 181.074 265.599 163.93 242.673 154.936C228.693 149.315 206.885 145.38 200.175 145.38C189.83 145.38 174.453 153.531 171.098 166.459C167.743 179.387 179.206 205.525 182.002 211.989C184.798 218.454 186.755 221.826 185.357 225.199C183.959 228.571 180.604 240.938 179.765 244.31C179.206 247.683 179.206 253.866 179.765 254.428C180.324 254.99 189.83 263.422 190.669 263.703C191.508 263.984 196.261 264.827 194.304 260.33C196.54 262.86 197.659 266.794 199.616 263.703C201.573 260.33 199.616 245.715 199.616 238.408C199.616 231.101 211.638 221.826 212.757 221.264C213.875 220.702 223.66 221.264 226.177 221.264C228.693 221.264 232.048 217.891 226.177 215.362C220.305 212.832 214.993 214.238 210.52 213.957C206.046 213.676 198.777 212.27 201.853 202.715C203.251 198.499 203.81 192.316 204.089 186.414H204.369C216.95 199.061 247.146 211.989 247.146 211.989L266.717 225.199L326.829 240.376L371.563 232.225L384.144 220.702C384.144 220.702 383.585 211.708 396.167 211.708C402.597 211.708 411.824 210.584 413.501 209.46" fill="white"/>
<path d="M198.497 266.513C197.379 266.513 196.261 265.67 195.702 264.546C194.024 265.67 191.787 265.389 190.669 265.108C190.11 264.827 189.83 264.827 181.443 257.52C180.324 256.395 179.206 255.552 179.206 255.552C176.969 253.866 178.647 243.748 178.647 243.748C179.206 240.375 182.841 227.728 184.238 224.075C185.077 221.826 184.238 219.578 182.002 215.081C181.722 214.238 181.163 213.395 180.883 212.27L180.604 211.708C171.098 189.786 167.463 174.048 169.7 165.616C173.335 152.688 188.712 143.413 200.455 143.413C200.455 143.413 200.455 143.413 200.734 143.413C208.003 143.413 229.811 147.629 243.511 153.25C252.738 156.903 263.082 161.681 273.148 166.178C286.568 172.361 300.547 178.825 303.902 178.544C305.021 178.544 305.86 177.982 306.698 177.139C307.817 175.453 307.817 172.923 307.537 172.08C307.537 171.518 307.537 171.237 307.817 170.956L311.451 165.054C311.731 164.492 312.29 164.211 312.849 164.211H335.775C336.614 164.211 337.453 164.773 337.453 165.897L338.292 171.799C338.292 173.766 338.571 179.106 340.529 181.074C341.088 181.636 341.647 181.917 342.206 181.636C343.604 181.636 348.357 180.231 353.949 178.263C370.724 172.923 398.962 164.492 424.125 164.492C459.354 164.492 478.366 181.355 480.043 185.852C482 190.911 481.721 200.747 474.731 206.368C470.537 209.46 459.633 213.676 449.848 217.329C443.697 219.578 438.105 221.826 436.148 222.95C435.309 223.512 435.309 223.793 435.309 224.075C435.309 225.761 438.105 229.133 442.578 232.506C445.095 234.473 450.966 239.251 449.848 244.872C449.009 249.369 446.772 253.585 446.493 253.585C445.933 254.428 444.815 254.709 443.976 254.147C443.138 253.585 442.858 252.461 443.417 251.618C443.417 251.618 445.654 247.964 446.213 244.029C446.772 240.094 441.74 236.16 440.342 235.036C436.987 232.506 431.395 227.728 431.674 223.512C431.674 222.388 432.234 220.702 434.191 219.578C436.427 218.172 442.019 216.205 448.45 213.676C457.396 210.303 468.58 206.087 472.215 203.277C478.086 198.78 477.806 190.348 476.408 186.976C474.731 183.041 456.837 167.864 423.566 167.864C398.962 167.864 371.004 176.577 354.228 181.636C347.798 183.603 343.324 185.008 341.647 185.008C339.969 185.008 338.571 184.446 337.173 183.322C333.818 179.95 333.818 172.642 333.818 171.799L333.259 167.864H312.849L310.053 172.361C310.333 173.766 310.333 177.139 308.376 179.669C307.257 181.355 305.3 182.198 303.343 182.479C299.149 182.76 288.245 177.982 270.631 169.832C260.566 165.335 250.501 160.557 241.275 156.903C227.016 151.282 205.208 147.348 199.616 147.348C190.389 147.348 175.571 154.936 172.216 167.021C170.818 172.361 171.377 184.446 182.841 210.865L183.12 211.427C183.4 212.27 183.959 213.395 184.238 214.238C186.475 219.297 187.873 222.388 186.475 226.042C185.077 229.415 181.722 241.781 181.163 244.872C180.604 247.964 180.604 252.18 180.883 253.585C181.443 253.866 182.002 254.709 183.12 255.552C185.357 257.52 189.83 261.454 190.949 262.297C191.787 262.579 192.347 262.297 192.626 262.297C192.626 262.297 192.626 262.016 192.347 261.454C192.067 260.611 192.346 259.768 192.906 259.206C193.744 258.644 194.583 258.925 195.142 259.487C195.981 260.33 196.54 261.173 197.1 262.016C197.379 262.297 197.659 262.86 197.938 263.141C199.057 261.454 198.497 253.023 198.218 247.402C197.938 244.029 197.659 241.219 197.659 238.689C197.659 229.977 211.638 220.14 211.638 219.859C212.477 219.297 214.434 219.297 222.542 219.578C223.94 219.578 225.338 219.578 225.897 219.578C226.736 219.578 227.295 219.016 227.575 218.735C227.575 218.454 227.295 217.891 225.338 217.048C221.703 215.362 218.069 215.643 214.714 215.643C213.036 215.643 211.638 215.643 210.24 215.643C207.165 215.362 202.971 214.8 200.734 211.427C199.057 209.179 199.057 205.806 200.175 202.153C201.293 198.78 202.132 193.44 202.412 186.414C202.412 185.852 202.691 185.571 202.971 185.29C203.25 185.009 203.81 184.727 204.369 184.727H204.648C205.208 184.727 205.487 185.009 205.767 185.29C218.069 197.656 247.705 210.303 247.985 210.584L267.556 223.793L327.108 238.689L371.004 230.539L382.746 219.859C382.746 218.454 383.306 215.924 385.263 213.676C387.779 211.146 391.414 209.741 396.446 209.741C403.436 209.741 411.544 208.617 412.662 207.774C413.501 207.212 414.619 207.493 415.179 208.055C415.738 208.898 415.738 209.741 414.899 210.584C412.383 212.551 400.36 213.114 396.446 213.114C392.532 213.114 389.736 213.957 388.059 215.924C386.381 217.891 386.381 220.14 386.381 220.14C386.381 220.702 386.101 221.264 385.822 221.545L373.24 233.068C372.961 233.349 372.681 233.349 372.402 233.63L327.667 241.781C327.388 241.781 327.108 241.781 326.829 241.781L266.717 226.604C266.437 226.604 266.438 226.604 266.158 226.323L246.587 213.114C245.748 212.833 219.467 201.591 205.767 189.505C205.208 195.126 204.648 199.623 203.53 202.715C202.691 205.525 202.691 207.774 203.53 209.179C204.928 211.146 208.283 211.708 210.52 211.989C211.638 211.989 213.036 211.989 214.434 211.989C218.069 211.989 222.262 211.708 226.736 213.676C231.209 215.643 231.209 218.173 230.93 219.297C230.371 221.545 228.134 222.95 225.897 222.95C225.058 222.95 223.94 222.95 222.262 222.95C219.746 222.95 214.154 222.669 213.036 222.95C211.079 224.075 201.014 232.787 201.014 238.408C201.014 240.657 201.293 243.748 201.293 246.84C201.853 255.833 202.132 262.016 200.734 264.546C201.014 265.108 200.175 266.513 198.497 266.513Z" fill="#3B4B75"/>
<path d="M355.626 110.811C355.626 110.811 362.057 100.974 375.198 103.223C388.338 105.471 367.928 118.681 358.702 117.837L352.551 133.576L341.926 145.38L324.872 141.727L306.139 141.446L298.031 133.576L294.117 116.151C294.117 116.151 272.309 109.968 273.427 101.817C274.546 93.667 292.16 104.909 292.16 104.909C292.16 104.909 295.515 96.7586 298.031 95.9154C300.547 95.0723 300.268 84.9544 300.268 84.9544L346.12 81.3008L355.906 94.2291V110.811H355.626Z" fill="white"/>
<path d="M342.206 147.067H341.926L324.872 143.413L306.419 143.132C305.859 143.132 305.58 142.851 305.3 142.57L297.192 134.7C296.913 134.419 296.633 134.138 296.633 133.857L292.998 117.556C288.245 116.151 270.911 110.249 272.029 101.536C272.309 99.007 273.707 98.1638 274.825 97.6017C279.299 95.6343 287.686 99.8501 291.88 102.38C293.278 99.288 295.515 95.0722 298.031 94.2291C298.59 93.667 299.149 89.1702 298.87 84.9544C298.87 84.1112 299.429 83.2681 300.547 82.987L346.4 79.3334C346.959 79.3334 347.518 79.6145 348.077 79.8955L357.863 92.8238C358.143 93.1049 358.143 93.386 358.143 93.9481V106.033C361.498 103.223 367.649 99.569 376.316 101.255C381.628 102.099 382.187 104.909 381.908 106.595C381.069 112.216 368.208 119.243 360.659 119.524L354.788 134.138C354.788 134.419 354.508 134.419 354.508 134.7L343.884 146.505C343.045 146.786 342.486 147.067 342.206 147.067ZM306.978 139.197L325.151 139.478L341.647 143.132L351.433 132.171L357.583 116.713C357.863 115.87 358.702 115.589 359.261 115.589C365.412 116.151 377.434 109.125 377.993 105.752C377.993 105.19 376.596 104.628 375.198 104.347C363.455 102.38 357.583 111.092 357.304 111.373C356.745 111.935 356.186 112.216 355.347 112.216C354.508 111.935 353.949 111.373 353.949 110.53V94.5101L345.002 82.706L301.945 86.3596C301.945 90.5754 301.386 96.4775 298.59 97.3207C297.751 97.6017 295.235 101.536 293.837 105.471C293.558 106.033 293.278 106.314 292.719 106.595C292.16 106.876 291.6 106.595 291.321 106.314C286.568 103.223 278.739 99.5691 275.943 100.693C275.664 100.693 275.384 100.974 275.105 101.817C274.546 106.876 287.966 112.497 294.676 114.184C295.235 114.465 295.794 114.746 295.794 115.589L299.709 132.452L306.978 139.197Z" fill="#3B4B75"/>
<path d="M420.77 294.899C409.866 293.494 398.683 292.37 387.779 291.246C384.144 290.965 380.51 290.684 376.875 290.403C372.402 290.122 367.928 289.84 363.175 289.559C357.863 289.278 352.83 288.997 347.798 288.997C324.872 288.435 301.386 288.997 278.18 290.965C274.546 291.246 270.911 291.527 267.276 291.808C263.362 292.089 259.168 292.651 255.254 292.932C241.554 294.337 228.134 296.024 215.273 297.991C215.273 297.991 194.024 290.122 194.583 254.147C195.142 218.173 234.005 211.708 247.985 211.989C258.329 211.989 304.462 223.794 331.582 224.356C358.702 224.918 390.016 219.578 405.952 220.14C421.889 220.702 441.74 237.565 441.74 258.925C441.74 279.723 423.566 295.18 420.77 294.899Z" fill="#FF6340"/>
<path d="M215.273 299.677C214.993 299.677 214.714 299.677 214.714 299.677C213.875 299.396 192.347 290.684 192.906 254.147C193.465 219.297 228.973 210.022 247.985 210.022C252.179 210.022 261.685 211.708 273.707 214.238C292.16 217.891 315.366 222.107 331.582 222.388C346.4 222.669 362.616 221.264 376.875 219.859C388.618 218.735 398.683 217.891 405.952 218.172C423.007 218.735 443.697 237.003 443.697 258.644C443.697 273.258 435.309 285.906 427.481 292.932C425.523 294.899 422.448 296.867 420.491 296.586C409.307 295.18 398.124 293.775 387.779 292.932C384.144 292.651 380.51 292.37 376.875 292.089C372.402 291.808 367.928 291.527 363.455 291.246C358.422 290.965 353.11 290.684 348.077 290.684C326.269 290.122 302.784 290.684 278.46 292.651C274.825 292.932 271.191 293.213 267.556 293.494C263.642 293.775 259.448 294.337 255.534 294.618C242.113 296.024 228.693 297.71 215.273 299.677ZM247.705 213.395C230.091 213.395 196.82 221.826 196.261 253.866C195.702 285.625 212.477 294.618 215.273 296.024C228.413 294.056 241.834 292.37 254.974 290.965C258.889 290.684 263.082 290.121 266.997 289.84C270.631 289.559 274.266 289.278 277.901 288.997C302.225 287.311 325.71 286.468 347.798 287.03C352.83 287.03 358.143 287.311 363.175 287.592C367.649 287.873 372.122 288.154 376.875 288.435C380.51 288.716 384.144 288.997 387.779 289.278C398.403 290.122 409.307 291.527 420.77 292.932C423.566 292.37 439.783 278.036 439.783 258.363C439.783 238.408 421.05 222.107 405.673 221.545C398.683 221.264 388.618 222.107 377.155 223.231C362.896 224.637 346.679 226.042 331.582 225.761C314.806 225.48 291.601 220.983 272.868 217.329C261.405 215.362 251.619 213.395 247.705 213.395Z" fill="#3B4B75"/>
<path d="M411.264 272.696C385.542 272.696 347.518 269.324 308.655 262.297C247.425 251.055 195.981 264.827 195.422 265.108C194.583 265.389 193.465 264.827 193.185 263.984C192.906 263.141 193.465 262.016 194.304 261.735C194.863 261.454 247.146 247.683 308.935 258.925C371.563 270.448 427.201 271.01 439.503 266.513C440.342 266.232 441.46 266.794 441.74 267.637C442.019 268.481 441.74 269.605 440.621 269.886C435.868 271.853 425.244 272.696 411.264 272.696Z" fill="#3B4B75"/>
<path d="M193.465 260.049H193.185C192.906 260.049 186.196 257.801 185.357 252.461C184.518 247.683 185.357 240.657 185.357 240.094C185.357 239.251 185.916 238.97 186.755 238.97C187.594 238.97 188.153 239.813 187.873 240.375C187.873 240.375 187.314 247.683 187.873 251.899C188.432 255.552 194.024 257.52 194.024 257.52C194.583 257.801 195.142 258.363 194.863 259.206C194.583 259.487 194.024 260.049 193.465 260.049Z" fill="#3B4B75"/>
<path d="M443.976 255.552C443.697 255.552 443.137 255.271 442.858 254.99C442.299 254.428 442.578 253.585 443.137 253.023C444.256 252.18 444.535 246.84 443.976 242.343C443.976 241.5 444.535 240.938 445.095 240.938C445.933 240.938 446.493 241.5 446.493 242.062C446.772 244.591 447.331 252.742 444.535 254.99C444.535 255.552 444.256 255.552 443.976 255.552Z" fill="#3B4B75"/>
<path d="M325.151 136.387C324.312 136.387 323.474 135.544 323.474 134.7C323.194 126.269 322.355 112.778 322.076 109.125C320.957 109.125 319 108.844 317.882 109.125C317.043 111.935 315.365 123.458 314.247 133.576C314.247 134.419 313.408 135.263 312.29 134.981C311.451 134.981 310.613 133.857 310.892 133.014C313.968 107.157 315.086 106.595 315.645 106.033C317.323 104.628 323.474 105.471 324.312 105.752C325.431 106.314 325.71 106.595 327.108 134.419C327.108 135.544 326.269 136.387 325.151 136.387Z" fill="#3B4B75"/>
<path d="M310.053 122.334C310.333 124.02 306.978 123.739 303.064 124.301C299.149 124.864 296.074 126.269 295.794 124.864C295.515 123.177 298.031 119.243 301.945 118.68C305.859 117.837 309.774 120.929 310.053 122.334Z" fill="#FF9292"/>
<path d="M303.343 120.367C296.074 120.367 290.203 114.465 290.203 107.157C290.203 99.8501 296.074 93.9481 303.343 93.9481C310.613 93.9481 316.484 99.8501 316.484 107.157C316.484 114.465 310.613 120.367 303.343 120.367ZM303.343 97.6017C298.031 97.6017 293.558 101.817 293.558 107.438C293.558 112.778 297.751 117.275 303.343 117.275C308.655 117.275 313.129 113.059 313.129 107.438C313.129 101.817 308.655 97.6017 303.343 97.6017Z" fill="#3B4B75"/>
<path d="M327.667 124.301C327.388 125.988 331.022 125.988 335.216 126.831C339.41 127.674 342.765 129.641 343.045 127.674C343.324 125.988 340.808 121.491 336.614 120.367C332.42 119.524 328.227 122.615 327.667 124.301Z" fill="#FF9292"/>
<path d="M336.335 122.053C336.055 122.053 335.776 122.053 335.496 122.053C331.861 121.772 328.786 120.367 326.27 117.556C324.033 115.027 322.635 111.654 322.914 108.001C323.194 100.693 329.345 95.0723 336.894 95.3534C344.163 95.6344 349.755 102.099 349.475 109.406C349.196 113.06 347.798 116.151 345.002 118.68C342.765 120.929 339.69 122.053 336.335 122.053ZM326.829 108.282C326.829 110.811 327.668 113.341 329.345 115.308C331.023 117.275 333.539 118.399 336.055 118.399C338.571 118.399 341.088 117.556 343.045 115.87C345.002 114.184 346.12 111.654 346.12 109.125C346.4 103.785 342.206 99.288 336.894 99.007C331.582 99.007 327.108 102.942 326.829 108.282Z" fill="#3B4B75"/>
<path d="M303.343 69.7777C303.343 69.7777 296.074 66.124 290.203 71.1829C284.331 75.9608 281.256 87.4839 287.127 91.4186C292.998 95.3533 294.117 95.9154 297.751 95.9154C301.666 96.1965 300.827 92.5428 305.3 90.0133C309.774 87.4839 314.527 87.7649 315.925 90.5754C317.323 93.3859 317.602 96.7586 321.237 95.9154C324.872 95.0723 323.474 88.8892 327.388 88.3271C331.302 87.765 332.141 90.5754 336.335 90.8565C340.529 91.1375 339.69 89.1702 343.045 92.2618C346.4 95.3533 348.637 93.386 349.475 95.9154C350.314 98.4449 352.551 102.099 354.228 104.909C355.906 107.72 355.906 110.811 355.906 110.811C355.906 110.811 362.336 104.347 366.53 103.223C366.53 103.223 364.014 99.288 366.53 95.9154C369.047 92.5428 372.402 88.327 368.487 85.2355C364.573 82.425 361.777 85.7976 360.659 82.706C359.541 79.6145 357.863 62.4703 346.12 62.4703C334.378 62.4703 334.098 70.9019 328.786 69.7777C323.474 68.3724 322.914 59.9408 317.323 62.4703C311.731 64.9998 316.204 74.2745 311.731 73.9934C306.698 73.4313 308.655 70.9019 303.343 69.7777Z" fill="#3B4B75"/>
<path d="M355.626 129.641C355.347 127.112 359.82 120.929 358.702 119.805C357.583 118.681 353.669 121.772 351.992 123.739C350.314 125.426 348.077 130.766 343.324 131.609C338.571 132.452 333.818 133.295 331.022 133.576C328.227 134.138 325.151 134.7 325.151 134.7C325.151 134.7 322.914 138.073 318.161 138.073C313.408 138.073 312.57 135.544 312.57 134.419C312.57 133.295 312.57 133.295 312.57 133.295C312.57 133.295 306.139 132.733 302.225 129.079C298.311 125.426 294.117 121.21 294.396 118.399C294.396 118.399 291.88 125.145 292.16 130.204C292.439 135.262 292.439 139.197 292.16 142.008C291.88 144.818 290.482 150.72 292.16 152.969C293.837 154.936 294.117 157.747 294.396 160.838C294.676 163.93 304.462 169.551 312.011 171.237C319.839 173.204 319 174.047 323.474 174.329C328.227 174.61 329.625 172.361 332.98 171.237C336.335 170.113 340.808 168.708 345.002 165.335C349.196 161.962 352.83 155.217 351.992 149.315C351.153 143.413 355.626 141.165 355.626 137.511C355.626 134.419 355.906 132.452 355.626 129.641ZM319.28 151.282C317.882 151.282 316.764 149.877 316.764 147.91C316.764 145.942 317.882 144.537 319.28 144.537C320.678 144.537 321.796 145.942 321.796 147.91C321.796 149.877 320.678 151.282 319.28 151.282Z" fill="#3B4B75"/>
<path d="M317.323 139.759C315.365 139.759 313.688 139.197 312.57 137.792C310.613 135.825 310.892 133.295 310.892 133.014C310.892 131.89 311.731 131.328 312.849 131.328C313.688 131.328 314.527 132.171 314.527 133.014C314.527 133.014 314.527 134.419 315.366 135.262C315.925 135.825 316.763 136.106 317.882 136.106C321.796 136.106 323.753 134.7 323.753 134.419C323.753 133.576 324.592 132.733 325.431 132.733C326.549 132.733 327.108 133.576 327.388 134.419C327.388 134.981 327.388 136.106 326.269 136.949C324.312 138.916 321.237 139.759 317.323 139.759C317.602 139.759 317.323 139.759 317.323 139.759Z" fill="#3B4B75"/>
<path d="M387.779 291.246C384.144 290.965 380.51 290.684 376.875 290.402C372.402 290.121 367.928 289.84 363.175 289.559C363.175 289.559 373.52 277.474 370.444 252.18C367.369 226.885 360.659 223.231 358.981 223.231C357.304 223.231 355.906 223.231 355.906 223.231C355.906 223.231 356.185 218.454 360.938 217.891C365.691 217.329 367.649 219.016 371.842 217.891C376.036 216.767 389.456 216.486 397.005 245.434C404.275 274.102 387.779 291.246 387.779 291.246Z" fill="white"/>
<path d="M387.779 292.932C383.865 292.651 380.23 292.37 376.875 292.089C372.402 291.808 367.928 291.527 363.455 291.246C362.895 291.246 362.336 290.684 362.057 290.121C361.777 289.559 361.777 288.716 362.336 288.154C362.336 288.154 372.122 276.069 369.046 251.899C365.971 226.323 359.54 224.637 359.261 224.637C357.304 224.637 355.906 224.637 355.906 224.637C355.067 224.637 354.228 223.793 354.228 222.669C354.508 220.421 355.906 216.205 360.938 215.643C363.455 215.362 365.412 215.643 366.81 215.643C368.487 215.924 369.606 215.924 371.563 215.643C376.036 214.519 390.575 213.395 398.683 244.31C406.232 273.821 390.016 291.246 389.177 292.089C388.618 292.932 388.338 292.932 387.779 292.932ZM366.53 287.873C369.885 288.154 373.52 288.435 376.875 288.435C380.23 288.716 383.585 288.997 386.94 289.278C389.736 285.906 401.479 270.167 395.048 245.434C387.499 217.048 374.638 218.454 372.122 219.297C369.606 219.859 367.928 219.578 365.971 219.297C364.573 219.016 363.175 219.016 360.938 219.297C359.261 219.578 358.422 220.421 357.863 221.264C358.142 221.264 358.422 221.264 358.422 221.264C359.54 221.264 368.208 221.545 371.842 251.618C374.638 271.01 369.326 282.814 366.53 287.873Z" fill="#3B4B75"/>
<path d="M278.18 290.684C274.545 290.965 270.911 291.246 267.276 291.527C263.362 291.808 259.168 292.37 255.254 292.651C255.254 292.651 242.113 279.723 241.275 254.709C240.156 229.696 250.221 215.081 268.954 211.708C268.954 211.708 273.148 210.584 275.664 211.708C278.46 212.833 281.535 213.957 284.611 214.238C287.686 214.519 287.127 218.454 287.127 218.454C287.127 218.454 264.201 242.624 277.062 287.311L278.18 290.684Z" fill="white"/>
<path d="M255.254 294.618C254.695 294.618 254.415 294.337 254.136 294.056C253.576 293.494 240.715 280.285 239.597 254.99C238.479 229.414 248.544 213.957 268.674 210.022C268.954 210.022 273.427 208.617 276.503 210.022C279.578 211.427 282.374 212.27 284.89 212.551C286.288 212.832 287.127 213.395 287.966 214.238C289.364 215.924 289.084 218.453 288.805 218.735C288.805 219.016 288.525 219.297 288.245 219.578C287.966 219.859 266.158 243.467 278.739 286.468L279.858 290.121C280.137 290.684 279.858 291.246 279.578 291.527C279.299 292.089 278.739 292.37 278.18 292.37C274.546 292.651 270.911 292.932 267.276 293.213C263.362 293.775 259.448 294.056 255.254 294.618ZM272.868 212.832C271.47 212.832 270.072 213.114 269.513 213.395C251.06 217.048 242.113 230.82 243.232 254.709C244.07 275.788 253.856 288.154 256.093 290.965C259.727 290.684 263.642 290.121 267.276 289.84C270.072 289.559 273.148 289.278 275.944 288.997L275.384 287.592C263.082 245.434 282.094 221.264 285.45 217.61C285.45 217.048 285.449 216.486 285.17 216.205C285.17 216.205 284.89 215.924 284.611 215.924C281.815 215.643 278.46 214.8 275.105 213.114C274.266 213.114 273.707 212.832 272.868 212.832Z" fill="#3B4B75"/>
<path d="M190.948 238.408C190.948 238.408 191.228 240.094 190.948 243.467C190.669 246.84 192.346 257.801 194.583 260.33C196.82 262.86 197.938 266.794 199.895 263.703C201.852 260.33 199.895 245.715 199.895 238.408C199.895 231.101 211.918 221.826 213.036 221.264C214.154 220.702 223.94 221.264 226.456 221.264C228.973 221.264 232.328 217.891 226.456 215.362C220.585 212.832 215.273 214.238 210.799 213.957C206.326 213.676 199.057 212.27 202.132 202.715C203.53 198.499 204.089 192.316 204.369 186.414C204.928 178.825 204.648 172.08 204.648 172.08" fill="white"/>
<path d="M198.497 266.513C196.82 266.513 195.702 265.108 194.863 263.422C194.304 262.86 194.024 262.016 193.465 261.454C190.669 258.363 188.991 246.84 189.551 243.186C189.83 240.094 189.551 238.689 189.551 238.689C189.271 237.846 189.83 236.722 190.949 236.722C191.787 236.441 192.906 237.003 193.185 238.127C193.185 238.408 193.744 240.094 193.185 243.748C192.906 247.402 194.583 257.52 196.261 259.206C197.1 260.049 197.659 260.892 198.218 261.735C198.497 262.016 198.777 262.579 199.057 262.86C200.175 261.173 199.616 252.742 199.336 247.121C199.057 243.748 198.777 240.938 198.777 238.408C198.777 229.696 212.756 219.859 212.756 219.578C213.595 219.016 215.552 219.016 223.66 219.297C225.058 219.297 226.456 219.297 227.015 219.297C227.854 219.297 228.413 218.735 228.693 218.454C228.693 218.172 228.413 217.61 226.456 216.767C222.822 215.081 219.187 215.362 215.832 215.362C214.154 215.362 212.756 215.362 211.359 215.362C208.283 215.081 204.089 214.519 201.853 211.146C200.175 208.898 200.175 205.525 201.293 201.872C202.412 198.499 203.25 193.159 203.53 186.133C204.089 178.544 203.81 171.799 203.81 171.799C203.81 170.956 204.648 170.113 205.487 170.113C206.606 170.113 207.165 170.956 207.165 171.799C207.165 171.799 207.165 178.825 206.885 186.414C206.326 193.721 205.487 199.342 204.369 202.996C203.53 205.806 203.53 208.055 204.369 209.46C205.767 211.427 209.122 211.989 211.359 212.27C212.477 212.27 213.875 212.27 215.273 212.27C218.907 212.27 223.101 211.989 227.575 213.957C232.048 215.924 232.048 218.454 231.768 219.578C231.209 221.826 228.973 223.231 226.736 223.231C225.897 223.231 224.779 223.231 223.101 223.231C220.585 223.231 214.993 222.95 213.875 223.231C211.918 224.356 201.853 233.068 201.853 238.689C201.853 240.938 202.132 244.029 202.132 247.121C202.691 256.114 202.971 262.297 201.573 264.827C201.014 265.108 200.175 266.513 198.497 266.513Z" fill="#3B4B75"/>
<path d="M438.944 263.141C438.664 263.141 438.664 263.141 438.385 263.141C436.148 262.578 435.589 259.487 435.309 256.395C435.029 252.18 432.513 245.434 428.878 241.219C428.319 240.657 427.76 239.813 426.921 238.97C423.007 233.63 416.856 225.761 403.715 224.356C388.618 222.669 388.618 222.388 388.618 220.702C388.618 220.14 389.177 219.578 389.736 219.016C390.854 218.172 398.124 212.833 404.834 211.989C409.307 211.427 412.942 208.336 416.577 205.244C418.254 203.839 419.652 202.715 421.33 201.309C423.287 199.904 425.244 197.094 427.48 194.283C431.395 188.943 435.868 183.041 442.299 181.355C443.138 181.074 444.256 181.636 444.535 182.76C444.815 183.603 444.256 184.727 443.137 185.008C437.825 186.414 433.911 191.754 430.276 196.532C428.04 199.623 425.803 202.715 423.287 204.401C421.609 205.525 420.211 206.93 418.534 208.055C414.619 211.427 410.426 214.8 405.113 215.643C401.479 216.205 397.565 218.172 394.769 219.859C396.726 220.14 399.522 220.421 403.995 220.983C418.534 222.669 425.523 231.663 429.717 237.003C430.276 237.846 430.836 238.689 431.395 239.251C435.589 244.31 438.384 251.618 438.664 256.395C438.664 257.801 438.944 258.644 439.223 259.206C439.503 258.925 439.782 258.363 440.062 257.801C442.299 253.866 439.782 245.997 438.664 243.186C438.384 242.343 438.664 241.219 439.503 240.938C440.342 240.657 441.46 240.938 441.74 241.781C442.299 242.905 446.493 253.304 442.858 259.487C442.299 261.173 440.901 263.141 438.944 263.141Z" fill="#3B4B75"/>
<path d="M440.342 242.624C440.342 242.624 444.815 253.304 441.74 258.644C438.384 264.265 437.546 260.611 436.987 256.395C436.707 252.18 434.191 244.872 430.276 240.095C426.083 235.317 419.932 224.356 403.995 222.669C387.779 220.983 390.575 220.702 390.575 220.702C390.575 220.702 398.124 214.8 404.834 213.676C411.544 212.551 412.942 209.46 418.813 205.525" fill="white"/>
<path d="M438.944 263.141C438.664 263.141 438.664 263.141 438.384 263.141C436.148 262.579 435.589 259.487 435.309 256.395C435.029 252.18 432.513 245.434 428.878 241.219C428.319 240.657 427.76 239.813 426.921 238.97C423.007 233.63 416.856 225.761 403.715 224.356C388.618 222.669 388.618 222.388 388.618 220.702C388.618 220.14 389.177 219.578 389.736 219.016C390.854 218.173 398.124 212.833 404.834 211.989C409.028 211.427 410.985 209.741 413.781 207.493C414.899 206.368 416.297 205.244 418.254 204.12C419.093 203.558 420.211 203.839 420.77 204.682C421.33 205.525 421.05 206.649 420.211 207.212C418.534 208.336 417.136 209.46 416.017 210.584C412.942 213.114 410.705 215.081 405.393 215.924C401.758 216.486 397.844 218.454 395.048 220.14C397.005 220.421 399.801 220.702 404.275 221.264C418.813 222.95 425.803 231.944 429.997 237.284C430.556 238.127 431.115 238.97 431.674 239.532C435.868 244.591 438.664 251.899 438.944 256.676C438.944 258.082 439.223 258.925 439.503 259.487C439.782 259.206 440.062 258.644 440.342 258.082C442.578 254.147 440.062 246.278 438.944 243.467C438.664 242.624 438.944 241.5 439.782 241.219C440.621 240.938 441.74 241.219 442.019 242.062C442.578 243.186 446.772 253.585 443.137 259.768C442.299 261.173 440.901 263.141 438.944 263.141Z" fill="#3B4B75"/>
</svg>
