<svg width="18" height="18" viewBox="0 0 18 18" fill="none" xmlns="http://www.w3.org/2000/svg">
<path d="M0.299999 17.4H2.1V7.5C2.1 7.33433 2.23432 7.2 2.4 7.2H6.6V0.3C6.6 0.134325 6.73432 0 6.9 0H14.7C14.8657 0 15 0.134325 15 0.3V17.4H17.7C17.8657 17.4 18 17.5343 18 17.7C18 17.8657 17.8657 18 17.7 18H0.299999C0.134324 18 -7.15256e-07 17.8657 -7.15256e-07 17.7C-7.15256e-07 17.5343 0.134324 17.4 0.299999 17.4ZM11.7 17.4H12.9V14.7C12.9 14.5343 12.7657 14.4 12.6 14.4H12C11.8343 14.4 11.7 14.5343 11.7 14.7V17.4ZM10.5 7.5V17.4H11.1V14.7C11.1 14.2029 11.5029 13.8 12 13.8H12.6C13.0971 13.8 13.5 14.2029 13.5 14.7V17.4H14.4V0.6H7.2V7.2H10.2C10.3657 7.2 10.5 7.33433 10.5 7.5ZM2.7 17.4H9.9V7.8H2.7V17.4Z" fill="#84829A"/>
<path d="M8.39963 4.2002H10.2002C10.3659 4.2002 10.5002 4.33452 10.5002 4.5002V6.3002C10.5002 6.46587 10.3659 6.6002 10.2002 6.6002H8.39963C8.2339 6.6002 8.09954 6.46587 8.09954 6.3002V4.5002C8.09954 4.33452 8.2339 4.2002 8.39963 4.2002ZM8.69972 6.0002H9.90007V4.8002H8.69972V6.0002Z" fill="#84829A"/>
<path d="M8.39963 1.19995H10.2002C10.3659 1.19995 10.5002 1.33428 10.5002 1.49995V3.29995C10.5002 3.46563 10.3659 3.59995 10.2002 3.59995H8.39963C8.2339 3.59995 8.09954 3.46563 8.09954 3.29995V1.49995C8.09954 1.33428 8.2339 1.19995 8.39963 1.19995ZM8.69972 2.99995H9.90007V1.79995H8.69972V2.99995Z" fill="#84829A"/>
<path d="M11.3996 4.2002H13.2002C13.3659 4.2002 13.5002 4.33452 13.5002 4.5002V6.3002C13.5002 6.46587 13.3659 6.6002 13.2002 6.6002H11.3996C11.2339 6.6002 11.0995 6.46587 11.0995 6.3002V4.5002C11.0995 4.33452 11.2339 4.2002 11.3996 4.2002ZM11.6997 6.0002H12.9001V4.8002H11.6997V6.0002Z" fill="#84829A"/>
<path d="M11.3996 1.19995H13.2002C13.3659 1.19995 13.5002 1.33428 13.5002 1.49995V3.29995C13.5002 3.46563 13.3659 3.59995 13.2002 3.59995H11.3996C11.2339 3.59995 11.0995 3.46563 11.0995 3.29995V1.49995C11.0995 1.33428 11.2339 1.19995 11.3996 1.19995ZM11.6997 2.99995H12.9001V1.79995H11.6997V2.99995Z" fill="#84829A"/>
<path d="M11.3996 7.19971H13.2002C13.3659 7.19971 13.5002 7.33403 13.5002 7.49971V9.29971C13.5002 9.46538 13.3659 9.59971 13.2002 9.59971H11.3996C11.2339 9.59971 11.0995 9.46538 11.0995 9.29971V7.49971C11.0995 7.33403 11.2339 7.19971 11.3996 7.19971ZM11.6997 8.99971H12.9001V7.79971H11.6997V8.99971Z" fill="#84829A"/>
<path d="M11.3996 10.1997H13.2002C13.3659 10.1997 13.5002 10.334 13.5002 10.4997V12.2997C13.5002 12.4654 13.3659 12.5997 13.2002 12.5997H11.3996C11.2339 12.5997 11.0995 12.4654 11.0995 12.2997V10.4997C11.0995 10.334 11.2339 10.1997 11.3996 10.1997ZM11.6997 11.9997H12.9001V10.7997H11.6997V11.9997Z" fill="#84829A"/>
<path d="M5.69991 13.7999H3.89938C3.73366 13.7999 3.5993 13.6656 3.5993 13.4999V11.6999C3.5993 11.5342 3.73366 11.3999 3.89938 11.3999H5.69991C5.86564 11.3999 6 11.5342 6 11.6999V13.4999C6 13.6656 5.86564 13.7999 5.69991 13.7999ZM5.39982 11.9999H4.19947V13.1999H5.39982V11.9999Z" fill="#84829A"/>
<path d="M5.69991 10.7997H3.89938C3.73366 10.7997 3.5993 10.6653 3.5993 10.4997V8.69966C3.5993 8.53398 3.73366 8.39966 3.89938 8.39966H5.69991C5.86564 8.39966 6 8.53398 6 8.69966V10.4997C6 10.6653 5.86564 10.7997 5.69991 10.7997ZM5.39982 8.99966H4.19947V10.1997H5.39982V8.99966Z" fill="#84829A"/>
<path d="M5.69991 16.7999H3.89938C3.73366 16.7999 3.5993 16.6656 3.5993 16.4999V14.6999C3.5993 14.5342 3.73366 14.3999 3.89938 14.3999H5.69991C5.86564 14.3999 6 14.5342 6 14.6999V16.4999C6 16.6656 5.86564 16.7999 5.69991 16.7999ZM5.39982 14.9999H4.19947V16.1999H5.39982V14.9999Z" fill="#84829A"/>
<path d="M8.70028 13.7999H6.89975C6.73403 13.7999 6.59966 13.6656 6.59966 13.4999V11.6999C6.59966 11.5342 6.73403 11.3999 6.89975 11.3999H8.70028C8.866 11.3999 9.00037 11.5342 9.00037 11.6999V13.4999C9.00037 13.6656 8.866 13.7999 8.70028 13.7999ZM8.40019 11.9999H7.19984V13.1999H8.40019V11.9999Z" fill="#84829A"/>
<path d="M8.70028 10.7997H6.89975C6.73403 10.7997 6.59966 10.6653 6.59966 10.4997V8.69966C6.59966 8.53398 6.73403 8.39966 6.89975 8.39966H8.70028C8.866 8.39966 9.00037 8.53398 9.00037 8.69966V10.4997C9.00037 10.6653 8.866 10.7997 8.70028 10.7997ZM8.40019 8.99966H7.19984V10.1997H8.40019V8.99966Z" fill="#84829A"/>
<path d="M8.70028 16.7999H6.89975C6.73403 16.7999 6.59966 16.6656 6.59966 16.4999V14.6999C6.59966 14.5342 6.73403 14.3999 6.89975 14.3999H8.70028C8.866 14.3999 9.00037 14.5342 9.00037 14.6999V16.4999C9.00037 16.6656 8.866 16.7999 8.70028 16.7999ZM8.40019 14.9999H7.19984V16.1999H8.40019V14.9999Z" fill="#84829A"/>
</svg>
