<svg width="41" height="41" viewBox="0 0 41 41" fill="none" xmlns="http://www.w3.org/2000/svg">
<path fill-rule="evenodd" clip-rule="evenodd" d="M20.5 41C31.8218 41 41 31.8218 41 20.5C41 9.17816 31.8218 0 20.5 0C9.17816 0 0 9.17816 0 20.5C0 31.8218 9.17816 41 20.5 41Z" fill="white"/>
<path fill-rule="evenodd" clip-rule="evenodd" d="M23.5371 17.2445C23.217 17.1432 22.8489 17.0757 22.5129 17.0757C22.0968 17.0757 21.2006 17.3626 21.2006 17.9195V19.2527H23.329V21.4971H21.2006V27.6905H19.0562V21.4971H18V19.2527H19.0562V18.122C19.0562 16.4176 19.7923 15 21.5687 15C22.1768 15 23.265 15.0338 23.8571 15.2531L23.5371 17.2445Z" fill="#080809"/>
</svg>
