<svg width="14" height="14" viewBox="0 0 14 14" fill="none" xmlns="http://www.w3.org/2000/svg">
<g clip-path="url(#clip0_1_521)">
<path d="M7.54888 6.56113L0.960319 12.9055C0.651786 12.6946 0.468605 12.3439 0.471844 11.9702V1.15205C0.468605 0.778376 0.651786 0.427651 0.960319 0.216797L7.54888 6.56113Z" fill="#2196F3"/>
<path d="M9.85428 4.34511L7.54888 6.56116L0.960327 0.216829C0.985152 0.197589 1.01101 0.17969 1.03776 0.163215C1.38597 -0.0478344 1.82092 -0.0546479 2.17558 0.145344L9.85428 4.34511Z" fill="#4CAF50"/>
<path d="M12.6481 6.56126C12.6524 6.98311 12.4232 7.37276 12.0524 7.57398L9.85423 8.77731L7.54883 6.56126L9.85423 4.34521L12.0524 5.54854C12.4232 5.74976 12.6524 6.13941 12.6481 6.56126Z" fill="#F0BB1F"/>
<path d="M9.85428 8.77708L2.17558 12.9769C1.82013 13.1737 1.38684 13.1669 1.03776 12.959C1.01101 12.9425 0.985152 12.9246 0.960327 12.9054L7.54891 6.56104L9.85428 8.77708Z" fill="#F15A2B"/>
</g>
<defs>
<clipPath id="clip0_1_521">
<rect width="13.12" height="13.12" fill="white"/>
</clipPath>
</defs>
</svg>
