<svg width="17" height="19" viewBox="0 0 17 19" fill="none" xmlns="http://www.w3.org/2000/svg">
<path d="M1.25359 17.844H2.85278V8.14003C2.85278 7.97764 2.97211 7.84598 3.11931 7.84598H6.85073V1.08263C6.85073 0.920239 6.97007 0.788574 7.11726 0.788574H14.047C14.1942 0.788574 14.3136 0.920239 14.3136 1.08263V17.844H16.7124C16.8595 17.844 16.9789 17.9756 16.9789 18.138C16.9789 18.3004 16.8595 18.4321 16.7124 18.4321H1.25359C1.1064 18.4321 0.987064 18.3004 0.987064 18.138C0.987064 17.9756 1.1064 17.844 1.25359 17.844ZM11.3817 17.844H12.4479V15.1974C12.4479 15.035 12.3285 14.9034 12.1813 14.9034H11.6483C11.5011 14.9034 11.3817 15.035 11.3817 15.1974V17.844ZM10.3156 8.14003V17.844H10.8487V15.1974C10.8487 14.7102 11.2067 14.3153 11.6483 14.3153H12.1813C12.6229 14.3153 12.9809 14.7102 12.9809 15.1974V17.844H13.7805V1.37669H7.38379V7.84598H10.0491C10.1963 7.84598 10.3156 7.97764 10.3156 8.14003ZM3.38584 17.844H9.78256V8.43409H3.38584V17.844Z" fill="#84829A"/>
<path d="M8.44941 4.90552H10.0491C10.1963 4.90552 10.3157 5.03718 10.3157 5.19958V6.96393C10.3157 7.12632 10.1963 7.25798 10.0491 7.25798H8.44941C8.30218 7.25798 8.18281 7.12632 8.18281 6.96393V5.19958C8.18281 5.03718 8.30218 4.90552 8.44941 4.90552ZM8.71602 6.66987H9.78246V5.49363H8.71602V6.66987Z" fill="#84829A"/>
<path d="M8.44941 1.96484H10.0491C10.1963 1.96484 10.3157 2.09651 10.3157 2.2589V4.02325C10.3157 4.18565 10.1963 4.31731 10.0491 4.31731H8.44941C8.30218 4.31731 8.18281 4.18565 8.18281 4.02325V2.2589C8.18281 2.09651 8.30218 1.96484 8.44941 1.96484ZM8.71602 3.72919H9.78246V2.55296H8.71602V3.72919Z" fill="#84829A"/>
<path d="M11.1148 4.90552H12.7145C12.8617 4.90552 12.9811 5.03718 12.9811 5.19958V6.96393C12.9811 7.12632 12.8617 7.25798 12.7145 7.25798H11.1148C10.9676 7.25798 10.8482 7.12632 10.8482 6.96393V5.19958C10.8482 5.03718 10.9676 4.90552 11.1148 4.90552ZM11.3814 6.66987H12.4479V5.49363H11.3814V6.66987Z" fill="#84829A"/>
<path d="M11.1148 1.96484H12.7145C12.8617 1.96484 12.9811 2.09651 12.9811 2.2589V4.02325C12.9811 4.18565 12.8617 4.31731 12.7145 4.31731H11.1148C10.9676 4.31731 10.8482 4.18565 10.8482 4.02325V2.2589C10.8482 2.09651 10.9676 1.96484 11.1148 1.96484ZM11.3814 3.72919H12.4479V2.55296H11.3814V3.72919Z" fill="#84829A"/>
<path d="M11.1148 7.8457H12.7145C12.8617 7.8457 12.9811 7.97737 12.9811 8.13976V9.90411C12.9811 10.0665 12.8617 10.1982 12.7145 10.1982H11.1148C10.9676 10.1982 10.8482 10.0665 10.8482 9.90411V8.13976C10.8482 7.97737 10.9676 7.8457 11.1148 7.8457ZM11.3814 9.61005H12.4479V8.43382H11.3814V9.61005Z" fill="#84829A"/>
<path d="M11.1148 10.7864H12.7145C12.8617 10.7864 12.9811 10.918 12.9811 11.0804V12.8448C12.9811 13.0072 12.8617 13.1388 12.7145 13.1388H11.1148C10.9676 13.1388 10.8482 13.0072 10.8482 12.8448V11.0804C10.8482 10.918 10.9676 10.7864 11.1148 10.7864ZM11.3814 12.5507H12.4479V11.3745H11.3814V12.5507Z" fill="#84829A"/>
<path d="M6.05114 14.3151H4.45149C4.30425 14.3151 4.18488 14.1834 4.18488 14.0211V12.2567C4.18488 12.0943 4.30425 11.9626 4.45149 11.9626H6.05114C6.19838 11.9626 6.31775 12.0943 6.31775 12.2567V14.0211C6.31775 14.1834 6.19838 14.3151 6.05114 14.3151ZM5.78453 12.5508H4.7181V13.727H5.78453V12.5508Z" fill="#84829A"/>
<path d="M6.05114 11.3744H4.45149C4.30425 11.3744 4.18488 11.2428 4.18488 11.0804V9.31603C4.18488 9.15364 4.30425 9.02197 4.45149 9.02197H6.05114C6.19838 9.02197 6.31775 9.15364 6.31775 9.31603V11.0804C6.31775 11.2428 6.19838 11.3744 6.05114 11.3744ZM5.78453 9.61009H4.7181V10.7863H5.78453V9.61009Z" fill="#84829A"/>
<path d="M6.05114 17.2558H4.45149C4.30425 17.2558 4.18488 17.1241 4.18488 16.9617V15.1974C4.18488 15.035 4.30425 14.9033 4.45149 14.9033H6.05114C6.19838 14.9033 6.31775 15.035 6.31775 15.1974V16.9617C6.31775 17.1241 6.19838 17.2558 6.05114 17.2558ZM5.78453 15.4914H4.7181V16.6677H5.78453V15.4914Z" fill="#84829A"/>
<path d="M8.71655 14.3151H7.11689C6.96966 14.3151 6.85029 14.1834 6.85029 14.0211V12.2567C6.85029 12.0943 6.96966 11.9626 7.11689 11.9626H8.71655C8.86378 11.9626 8.98315 12.0943 8.98315 12.2567V14.0211C8.98315 14.1834 8.86378 14.3151 8.71655 14.3151ZM8.44994 12.5508H7.3835V13.727H8.44994V12.5508Z" fill="#84829A"/>
<path d="M8.71655 11.3744H7.11689C6.96966 11.3744 6.85029 11.2428 6.85029 11.0804V9.31603C6.85029 9.15364 6.96966 9.02197 7.11689 9.02197H8.71655C8.86378 9.02197 8.98315 9.15364 8.98315 9.31603V11.0804C8.98315 11.2428 8.86378 11.3744 8.71655 11.3744ZM8.44994 9.61009H7.3835V10.7863H8.44994V9.61009Z" fill="#84829A"/>
<path d="M8.71655 17.2558H7.11689C6.96966 17.2558 6.85029 17.1241 6.85029 16.9617V15.1974C6.85029 15.035 6.96966 14.9033 7.11689 14.9033H8.71655C8.86378 14.9033 8.98315 15.035 8.98315 15.1974V16.9617C8.98315 17.1241 8.86378 17.2558 8.71655 17.2558ZM8.44994 15.4914H7.3835V16.6677H8.44994V15.4914Z" fill="#84829A"/>
</svg>
