<svg width="132" height="87" viewBox="0 0 132 87" fill="none" xmlns="http://www.w3.org/2000/svg">
<path d="M29.8052 38.9999C29.8052 48.9411 37.8641 56.9999 47.8052 56.9999L74.8052 56.9999C77.5666 56.9999 79.8052 54.7614 79.8052 51.9999L79.8052 17.9999C79.8052 12.4771 75.3281 7.99994 69.8052 7.99994L34.8052 7.99994C32.0438 7.99994 29.8052 10.2385 29.8052 12.9999L29.8052 38.9999Z" fill="#FFF1DA"/>
<path d="M71.4095 58.0054C70.1106 57.526 68.7047 57.2902 67.2794 57.3124C63.5926 57.3269 60.5567 58.7995 60.4989 60.6014C60.441 62.4033 63.3833 63.8515 67.0701 63.8371C68.4943 63.8479 69.9154 63.6013 71.2457 63.1129C71.8743 62.8676 72.2915 62.3234 72.3099 61.7251L72.385 59.3844C72.4059 58.7858 72.0229 58.245 71.4095 58.0054Z" fill="#D5D6DB"/>
<path d="M78.9601 30.9188C78.0181 30.5713 76.9985 30.4005 75.965 30.4166C73.2923 30.427 71.0903 31.4944 71.0484 32.7999C71.0065 34.1054 73.1409 35.1558 75.8133 35.1453C76.8461 35.1529 77.8766 34.9738 78.8414 34.6196C79.2968 34.4417 79.599 34.0474 79.6124 33.6136L79.6667 31.9187C79.6821 31.485 79.4048 31.0926 78.9601 30.9188Z" fill="#D5D6DB"/>
<path d="M67.6025 24.9105C67.4316 24.7695 67.2049 24.6922 66.9668 24.6934L60.691 24.7169C60.1665 24.7181 59.7285 25.0935 59.7129 25.5557C59.7093 25.6616 59.7285 25.7666 59.7697 25.8647L66.0386 40.9242L86.9651 40.8457L67.6025 24.9105Z" fill="#029BC5"/>
<path d="M115.844 54.1779L58.6961 54.3499L28.438 48.6157L14.5643 43.1323L14.671 39.8459L109.405 40.4185C112.231 40.4299 114.981 41.0989 117.375 42.358C118.42 42.9149 119.377 43.5876 120.225 44.3599C120.981 45.0378 121.619 45.8105 122.12 46.655C122.675 47.6037 124.189 48.6592 124.18 49.8216C124.183 49.8213 123.026 54.4297 115.844 54.1779V54.1779Z" fill="#E1E6E9"/>
<path d="M61.4716 50.7778L26.077 68.4487C25.6073 68.7148 25.4587 69.2591 25.745 69.6641C25.9206 69.9127 26.2301 70.0616 26.5672 70.0599L32.8554 70.0332C34.0649 70.0278 35.2691 69.8042 36.3934 69.3764L95.9949 49.9609L61.4716 50.7778Z" fill="#029BC5"/>
<path d="M17.0537 21.9631C16.8233 21.6689 16.4419 21.4949 16.03 21.4959L10.8582 21.5081C10.1537 21.5095 9.567 22.0129 9.54754 22.6325C9.54395 22.7504 9.56122 22.8674 9.5992 22.9794L14.7639 38.2709L29.9152 38.3722L17.0537 21.9631Z" fill="#029BC5"/>
<path d="M17.3264 41.7938L6.77321 46.2844C6.61992 46.3479 6.54982 46.5074 6.61671 46.6404C6.66498 46.7363 6.77424 46.796 6.89482 46.7923L11.7534 46.7723C11.7911 46.7721 11.8291 46.7658 11.8647 46.7536L26.3302 41.7606L17.3264 41.7938Z" fill="#029BC5"/>
<path d="M119.465 44.2228C118.594 43.4303 117.61 42.7407 116.536 42.1696C114.674 42.9551 113.063 44.1504 111.861 45.6362C111.647 45.9524 111.759 46.3532 112.111 46.5316C112.22 46.587 112.345 46.6162 112.473 46.6164L121.411 46.5784C120.897 45.7114 120.241 44.9183 119.465 44.2228Z" fill="#029BC5"/>
<path d="M100.761 42.9368L106.536 42.9559L106.302 52.1991L100.528 52.18L100.761 42.9368Z" fill="#D5D6DB"/>
<path d="M96.4113 43.9974C95.7145 43.996 95.1351 44.4905 95.1178 45.1019L95.0898 46.0926C95.096 46.7036 95.6664 47.1833 96.3639 47.1641C97.0278 47.1456 97.5737 46.6797 97.6128 46.0977L97.6408 45.107C97.6581 44.4961 97.1079 43.9994 96.4113 43.9974V43.9974Z" fill="#3A556A"/>
<path d="M91.1561 43.9974C90.4592 43.996 89.8798 44.4905 89.8626 45.1019L89.8345 46.0926C89.8408 46.7036 90.4112 47.1833 91.1086 47.1641C91.7725 47.1456 92.3184 46.6797 92.3575 46.0977L92.3856 45.107C92.4025 44.4961 91.8524 43.9994 91.1561 43.9974V43.9974Z" fill="#3A556A"/>
<path d="M85.8992 43.9974C85.2026 43.9968 84.6244 44.491 84.6071 45.1019L84.5791 46.0926C84.5854 46.7036 85.1558 47.1833 85.8532 47.1641C86.5171 47.1455 87.063 46.6797 87.1021 46.0977L87.1301 45.1071C87.1474 44.4956 86.5964 43.9989 85.8992 43.9974V43.9974Z" fill="#3A556A"/>
<path d="M80.6441 43.9975C79.9475 43.9969 79.3693 44.491 79.352 45.102L79.324 46.0927C79.3303 46.7037 79.9006 47.1834 80.5981 47.1642C81.262 47.1456 81.8079 46.6798 81.847 46.0978L81.875 45.1071C81.892 44.4956 81.341 43.9989 80.6441 43.9975V43.9975Z" fill="#3A556A"/>
<path d="M75.3892 43.9978C74.6922 43.9971 74.1138 44.4914 74.0966 45.1026L74.0687 46.0936C74.0515 46.7045 74.6022 47.2009 75.2988 47.2024C75.9955 47.2039 76.5741 46.7099 76.5914 46.099L76.6193 45.108C76.6374 44.497 76.0872 44.0001 75.3906 43.9978C75.39 43.9978 75.3897 43.9978 75.3892 43.9978Z" fill="#3A556A"/>
<path d="M70.1339 43.9979C69.437 43.9972 68.8586 44.4915 68.8414 45.1026L68.8135 46.0936C68.7962 46.7046 69.347 47.201 70.0436 47.2025C70.7403 47.204 71.3189 46.7099 71.3361 46.099L71.3641 45.108C71.3822 44.4971 70.832 44.0001 70.1354 43.9979C70.1348 43.9979 70.1342 43.9979 70.1339 43.9979Z" fill="#3A556A"/>
<path d="M64.8785 43.9978C64.1815 43.9971 63.6032 44.4914 63.586 45.1025L63.558 46.0935C63.5417 46.7044 64.0934 47.2001 64.7897 47.2008C65.4849 47.2015 66.0623 46.7085 66.0804 46.0989L66.1083 45.1079C66.1258 44.4968 65.5754 43.9998 64.8785 43.9978Z" fill="#3A556A"/>
<path d="M59.6231 43.9978C58.9261 43.9971 58.3477 44.4914 58.3305 45.1026L58.3026 46.0936C58.2862 46.7045 58.8379 47.2002 59.5342 47.2009C60.2294 47.2016 60.8069 46.7086 60.8249 46.0989L60.8529 45.1079C60.8704 44.4968 60.32 43.9998 59.6231 43.9978Z" fill="#3A556A"/>
<path d="M54.3679 43.9979C53.671 43.9972 53.0926 44.4914 53.0754 45.1026L53.0475 46.0936C53.0312 46.7045 53.5828 47.2002 54.2792 47.2009C54.9743 47.2016 55.5518 46.7086 55.5698 46.099L55.5978 45.108C55.615 44.4968 55.0645 43.9999 54.3679 43.9979Z" fill="#3A556A"/>
<path d="M49.1111 43.9978C48.4145 43.9963 47.8358 44.4904 47.8186 45.1013L47.8185 45.1026L47.7906 46.0936C47.7743 46.7045 48.3259 47.2002 49.0223 47.2009C49.7174 47.2016 50.2949 46.7086 50.313 46.0989L50.3409 45.1079C50.3584 44.4968 49.808 43.9998 49.1111 43.9978Z" fill="#3A556A"/>
<path d="M43.8573 43.9978C43.1607 43.9963 42.582 44.4904 42.5648 45.1013L42.5648 45.1026L42.5369 46.0935C42.5205 46.7045 43.0722 47.2001 43.7686 47.2008C44.4637 47.2016 45.0412 46.7086 45.0592 46.099L45.0872 45.108C45.1044 44.4968 44.5539 43.9998 43.8573 43.9978Z" fill="#3A556A"/>
</svg>
