<svg width="130" height="61" viewBox="0 0 130 61" fill="none" xmlns="http://www.w3.org/2000/svg">
<path d="M25.1669 31.1849C25.1669 41.126 33.2257 49.1849 43.1669 49.1849L75.878 49.1849C78.6394 49.1849 80.878 46.9463 80.878 44.1849L80.878 10.1849C80.878 4.66203 76.4009 0.184875 70.878 0.184876L30.1669 0.184879C27.4054 0.184879 25.1669 2.42346 25.1669 5.18488L25.1669 31.1849Z" fill="#FFF1DA"/>
<path d="M120.484 46.3983L58.3756 46.7464L24.8693 41.1443L9.20177 35.7403L8.96716 32.4755L112.015 32.7505C115.09 32.7531 118.15 33.4091 120.887 34.6524C122.082 35.2024 123.195 35.8676 124.199 36.6321C125.093 37.3031 125.869 38.0687 126.504 38.906C127.209 39.8468 128.967 40.8905 129.082 42.0452C129.084 42.0449 128.318 46.6263 120.484 46.3983V46.3983Z" fill="#E1E6E9"/>
<path d="M69.202 41.6125L26.5189 53.8266C26.0121 54.0304 25.8613 54.5182 26.1817 54.916C26.3784 55.1602 26.7189 55.3244 27.0866 55.3524L33.944 55.8793C35.2631 55.9804 48.1803 55.178 49.3977 54.8829L97.8177 39.4904L69.202 41.6125Z" fill="#029BC5"/>
<path d="M9.95664 13.8423C9.67423 13.5476 9.23848 13.3755 8.78702 13.3801L3.11849 13.4381C2.34625 13.4458 1.75409 13.9587 1.79557 14.5838C1.80358 14.7027 1.83438 14.8206 1.88736 14.9332L9.09942 30.3105L25.72 30.2788L9.95664 13.8423Z" fill="#029BC5"/>
<path d="M12.2715 34.1184L1.24519 38.6519C1.08485 38.716 1.02523 38.8754 1.11208 39.0078C1.17474 39.1033 1.30006 39.1623 1.43104 39.158L6.72247 39.1134C6.76357 39.1131 6.80424 39.1066 6.84176 39.0942L22.0777 34.0398L12.2715 34.1184Z" fill="#029BC5"/>
<path d="M123.228 36.5513C122.195 35.7628 121.049 35.0783 119.816 34.5133C117.863 35.3145 116.225 36.5249 115.066 38.0236C114.865 38.3422 115.028 38.7434 115.431 38.9198C115.557 38.9745 115.696 39.0029 115.836 39.0022L125.598 38.8996C124.946 38.0338 124.148 37.2432 123.228 36.5513Z" fill="#029BC5"/>
<path d="M102.755 35.3347L109.117 35.2903L109.787 44.6736L103.425 44.7181L102.755 35.3347Z" fill="#D5D6DB"/>
<path d="M64.9953 16.9275C64.7938 16.7872 64.5379 16.7113 64.2775 16.7144L57.413 16.7889C56.8392 16.7944 56.3985 17.1753 56.4288 17.6401C56.4356 17.7465 56.4675 17.8519 56.5226 17.9503L71.5 32.7895L87.8153 32.7895L64.9953 16.9275Z" fill="#029BC5"/>
<path d="M98.1977 36.3568C97.4307 36.3631 96.8431 36.8698 96.8857 37.4885L96.9548 38.491C97.0232 39.109 97.6991 39.588 98.4646 39.5607C99.1932 39.5345 99.7469 39.0572 99.7313 38.468L99.6622 37.4655C99.6197 36.8473 98.9643 36.3509 98.1977 36.3568V36.3568Z" fill="#3A556A"/>
<path d="M92.503 36.3556C91.736 36.362 91.1484 36.8686 91.191 37.4874L91.26 38.4898C91.3285 39.1079 92.0044 39.5868 92.7699 39.5595C93.4985 39.5334 94.0522 39.056 94.0366 38.4668L93.9675 37.4644C93.9246 36.8461 93.2693 36.3498 92.503 36.3556V36.3556Z" fill="#3A556A"/>
<path d="M86.8064 36.3545C86.0398 36.3616 85.4535 36.868 85.4961 37.4862L85.5651 38.4886C85.6336 39.1067 86.3095 39.5856 87.075 39.5583C87.8036 39.5322 88.3572 39.0548 88.3416 38.4657L88.2726 37.4632C88.23 36.8445 87.5736 36.3481 86.8064 36.3545V36.3545Z" fill="#3A556A"/>
<path d="M81.1117 36.3532C80.3451 36.3604 79.7588 36.8668 79.8014 37.485L79.8704 38.4875C79.9389 39.1055 80.6148 39.5844 81.3803 39.5572C82.1089 39.531 82.6625 39.0536 82.6469 38.4644L82.5779 37.462C82.535 36.8432 81.8786 36.3469 81.1117 36.3532V36.3532Z" fill="#3A556A"/>
<path d="M75.4173 36.3525C74.6503 36.3596 74.0637 36.8661 74.1063 37.4847L74.1754 38.4876C74.2181 39.1059 74.8741 39.602 75.6408 39.5957C76.4075 39.5894 76.9945 39.0831 76.9519 38.4648L76.8827 37.4619C76.8411 36.8436 76.1856 36.347 75.4189 36.3525C75.4182 36.3525 75.4179 36.3525 75.4173 36.3525Z" fill="#3A556A"/>
<path d="M69.7224 36.3514C68.9555 36.3585 68.3688 36.865 68.4115 37.4836L68.4806 38.4865C68.5232 39.1048 69.1793 39.6009 69.946 39.5946C70.7127 39.5883 71.2997 39.082 71.257 38.4637L71.1879 37.4608C71.1463 36.8425 70.4908 36.3459 69.7241 36.3514C69.7234 36.3514 69.7228 36.3514 69.7224 36.3514Z" fill="#3A556A"/>
<path d="M64.0273 36.3501C63.2604 36.3572 62.6738 36.8637 62.7164 37.4823L62.7856 38.4852C62.8291 39.1034 63.4861 39.5987 64.2524 39.5916C65.0174 39.5846 65.6031 39.0793 65.5616 38.4624L65.4925 37.4595C65.4501 36.841 64.7944 36.3443 64.0273 36.3501Z" fill="#3A556A"/>
<path d="M58.3325 36.3489C57.5656 36.356 56.979 36.8626 57.0216 37.4811L57.0907 38.484C57.1343 39.1023 57.7913 39.5976 58.5576 39.5905C59.3226 39.5834 59.9083 39.0782 59.8668 38.4612L59.7976 37.4583C59.7553 36.8398 59.0996 36.3432 58.3325 36.3489Z" fill="#3A556A"/>
<path d="M52.6378 36.3477C51.8709 36.3548 51.2843 36.8614 51.3269 37.4799L51.396 38.4828C51.4396 39.101 52.0966 39.5963 52.8629 39.5892C53.6279 39.5822 54.2136 39.0769 54.1721 38.46L54.1029 37.4571C54.0603 36.8386 53.4045 36.342 52.6378 36.3477Z" fill="#3A556A"/>
<path d="M46.9413 36.3465C46.1746 36.3528 45.5876 36.8591 45.6303 37.4774L45.6303 37.4787L45.6995 38.4816C45.7431 39.0999 46.4 39.5952 47.1663 39.5881C47.9313 39.581 48.5171 39.0757 48.4755 38.4588L48.4064 37.4559C48.3641 36.8373 47.7083 36.3407 46.9413 36.3465Z" fill="#3A556A"/>
<path d="M41.2478 36.3457C40.4812 36.3518 39.8942 36.8579 39.9366 37.4762L39.9367 37.4775L40.0056 38.4805C40.049 39.0988 40.7058 39.5944 41.472 39.5876C42.2369 39.5808 42.8227 39.0758 42.7813 38.4587L42.7125 37.4557C42.67 36.8371 42.0144 36.3403 41.2478 36.3457Z" fill="#3A556A"/>
</svg>
