<svg width="21" height="19" viewBox="0 0 21 19" fill="none" xmlns="http://www.w3.org/2000/svg">
<path d="M19.316 1.78609C18.282 0.649321 16.8332 0.00251682 15.3153 0.000119031C13.7961 0.00191737 12.3458 0.648378 11.3102 1.78536L10.9573 2.16682L10.6044 1.78536C8.54956 -0.476742 5.09097 -0.60665 2.87948 1.49514C2.78149 1.58831 2.68684 1.68508 2.59575 1.78536C0.415999 4.19026 0.415999 7.90692 2.59575 10.3118L10.4386 18.7718C10.71 19.0648 11.1622 19.0773 11.4486 18.7998C11.458 18.7907 11.4671 18.7814 11.476 18.7718L19.316 10.3118C21.4956 7.90717 21.4956 4.19073 19.316 1.78609ZM18.2822 9.30556H18.2815L10.9573 17.2072L3.63239 9.30556C1.96718 7.46799 1.96718 4.62845 3.63239 2.79089C5.14459 1.11441 7.69921 1.00929 9.33821 2.55608C9.41779 2.63118 9.49435 2.70949 9.56777 2.79089L10.4386 3.73065C10.7256 4.02233 11.189 4.02233 11.476 3.73065L12.3468 2.79162C13.8591 1.11513 16.4137 1.01002 18.0527 2.55681C18.1322 2.63191 18.2088 2.71022 18.2822 2.79162C19.9619 4.63209 19.9742 7.47681 18.2822 9.30556Z" fill="#4152CA"/>
</svg>
