<svg width="158" height="143" viewBox="0 0 158 143" fill="none" xmlns="http://www.w3.org/2000/svg">
<path d="M91.3467 80.9445C89.9903 81.2225 88.6716 81.7639 87.4725 82.5347C84.3482 84.4919 82.5459 87.3447 83.4474 88.9059C84.3489 90.4671 87.6125 90.1452 90.7369 88.1879C91.9524 87.4457 93.0296 86.4866 93.902 85.3698C94.3067 84.8299 94.374 84.1474 94.0739 83.6295L92.9028 81.6014C92.6048 81.0819 91.9942 80.8245 91.3467 80.9445Z" fill="#D5D6DB"/>
<path d="M83.4713 53.9506C82.4878 54.1523 81.5315 54.5451 80.6619 55.1041C78.397 56.5229 77.0894 58.5914 77.7425 59.7225C78.3957 60.8536 80.763 60.62 83.0278 59.2013C83.9092 58.6628 84.6901 57.9669 85.3229 57.1571C85.6159 56.7657 85.6646 56.2713 85.4471 55.8958L84.5991 54.4272C84.3833 54.0507 83.9408 53.8636 83.4713 53.9506Z" fill="#D5D6DB"/>
<path d="M70.6531 54.8382C70.4335 54.8086 70.2001 54.8625 69.9985 54.9891L64.6795 58.3199C64.2346 58.5976 64.0606 59.1476 64.2912 59.5485C64.3439 59.6404 64.4157 59.7194 64.5024 59.781L77.7727 69.2672L95.5088 58.1606L70.6531 54.8382Z" fill="#029BC5"/>
<path d="M127.075 54.2513L78.6179 84.5461L49.8879 95.6378L35.2091 98.2987L33.5661 95.4505L114.346 45.9595C116.753 44.478 119.442 43.5958 122.14 43.4025C123.322 43.3243 124.49 43.3906 125.617 43.5995C126.617 43.7767 127.567 44.0965 128.438 44.5496C129.41 45.0626 131.253 45.1605 131.859 46.1527C131.861 46.1511 133.309 50.6765 127.075 54.2513V54.2513Z" fill="#E1E6E9"/>
<path d="M79.0913 80.0474L58.3452 113.732C58.0866 114.206 58.2476 114.746 58.7044 114.94C58.9847 115.058 59.3262 115.021 59.6117 114.842L64.9395 111.502C65.9642 110.859 66.8693 110.034 67.5987 109.077L107.989 61.1404L79.0913 80.0474Z" fill="#029BC5"/>
<path d="M26.1559 79.0017C25.805 78.8733 25.3892 78.9267 25.0398 79.1448L20.6528 81.8836C20.055 82.2565 19.8221 82.9937 20.1325 83.5303C20.1916 83.6323 20.2681 83.7227 20.3594 83.7977L32.8141 94.0635L45.7388 86.1564L26.1559 79.0017Z" fill="#029BC5"/>
<path d="M36.8495 95.7044L30.2534 105.087C30.1566 105.221 30.1812 105.394 30.3082 105.472C30.3998 105.528 30.5242 105.521 30.6246 105.454L34.7415 102.874C34.7735 102.854 34.8024 102.828 34.8262 102.799L44.4808 90.9262L36.8495 95.7044Z" fill="#029BC5"/>
<path d="M124.899 43.8841C123.742 43.6703 122.542 43.6035 121.328 43.6847C120.161 45.3343 119.422 47.2001 119.186 49.096C119.171 49.4775 119.477 49.7592 119.87 49.7251C119.992 49.7143 120.114 49.6735 120.222 49.6061L127.796 44.8582C126.901 44.3933 125.926 44.0653 124.899 43.8841Z" fill="#029BC5"/>
<path d="M108.332 52.6588L113.248 49.6284L117.926 57.604L113.01 60.6344L108.332 52.6588Z" fill="#D5D6DB"/>
<path d="M105.196 55.8546C104.603 56.221 104.372 56.9467 104.68 57.4753L105.179 58.3317C105.507 58.8474 106.244 58.9541 106.827 58.5698C107.381 58.2038 107.599 57.52 107.325 57.005L106.826 56.1486C106.518 55.6205 105.789 55.4887 105.196 55.8546V55.8546Z" fill="#3A556A"/>
<path d="M100.732 58.627C100.139 58.9935 99.9077 59.7192 100.216 60.2478L100.714 61.1041C101.042 61.6199 101.78 61.7265 102.362 61.3422C102.916 60.9762 103.134 60.2925 102.86 59.7774L102.362 58.9211C102.054 58.3931 101.324 58.2613 100.732 58.627V58.627Z" fill="#3A556A"/>
<path d="M96.266 61.4004C95.6738 61.7673 95.4434 62.4921 95.751 63.0203L96.2498 63.8766C96.5775 64.3923 97.3151 64.499 97.8975 64.1147C98.4517 63.7487 98.6697 63.065 98.3959 62.5499L97.8971 61.6936C97.5892 61.165 96.859 61.0338 96.266 61.4004V61.4004Z" fill="#3A556A"/>
<path d="M91.8017 64.1727C91.2095 64.5397 90.9791 65.2645 91.2867 65.7927L91.7856 66.649C92.1132 67.1648 92.8508 67.2715 93.4332 66.8872C93.9874 66.5212 94.2054 65.8374 93.9316 65.3224L93.4328 64.466C93.1246 63.9376 92.3944 63.8063 91.8017 64.1727V64.1727Z" fill="#3A556A"/>
<path d="M87.3377 66.9453C86.7453 67.3124 86.5147 68.0374 86.8225 68.5657L87.3216 69.4223C87.6292 69.9504 88.359 70.0816 88.9516 69.7153C89.5442 69.3491 89.7752 68.6241 89.4675 68.0961L88.9684 67.2394C88.6615 66.7109 87.9319 66.579 87.339 66.9445C87.3385 66.9449 87.3382 66.945 87.3377 66.9453Z" fill="#3A556A"/>
<path d="M82.8733 69.7178C82.2808 70.0848 82.0503 70.8099 82.3581 71.3382L82.8571 72.1948C83.1648 72.7229 83.8946 72.8541 84.4872 72.4878C85.0798 72.1216 85.3107 71.3966 85.0031 70.8685L84.504 70.0119C84.1971 69.4834 83.4675 69.3514 82.8745 69.717C82.874 69.7173 82.8735 69.7176 82.8733 69.7178Z" fill="#3A556A"/>
<path d="M78.4087 72.4903C77.8162 72.8574 77.5857 73.5824 77.8934 74.1107L78.3925 74.9673C78.7009 75.4949 79.4311 75.6249 80.023 75.2582C80.6139 74.892 80.8444 74.1686 80.5382 73.6412L80.0391 72.7846C79.7315 72.2562 79.0017 72.1244 78.4087 72.4903Z" fill="#3A556A"/>
<path d="M73.9441 75.2628C73.3516 75.6299 73.1211 76.3549 73.4288 76.8832L73.9279 77.7399C74.2363 78.2675 74.9665 78.3975 75.5584 78.0307C76.1493 77.6646 76.3798 76.9411 76.0736 76.4137L75.5745 75.5571C75.2669 75.0286 74.5371 74.8969 73.9441 75.2628Z" fill="#3A556A"/>
<path d="M69.4798 78.0352C68.8873 78.4023 68.6568 79.1273 68.9646 79.6556L69.4636 80.5122C69.772 81.0398 70.5022 81.1698 71.0941 80.8031C71.685 80.437 71.9155 79.7135 71.6093 79.1861L71.1102 78.3295C70.8024 77.8012 70.0726 77.6694 69.4798 78.0352Z" fill="#3A556A"/>
<path d="M65.014 80.8085C64.4214 81.1747 64.1904 81.8997 64.4981 82.4278L64.4987 82.4289L64.9978 83.2855C65.3062 83.8131 66.0364 83.9432 66.6283 83.5764C67.2192 83.2103 67.4497 82.4868 67.1434 81.9594L66.6444 81.1028C66.3368 80.5743 65.607 80.4425 65.014 80.8085Z" fill="#3A556A"/>
<path d="M60.5508 83.5802C59.9582 83.9464 59.7272 84.6714 60.0349 85.1994L60.0355 85.2005L60.5346 86.0571C60.8431 86.5847 61.5732 86.7148 62.1651 86.348C62.7561 85.9819 62.9866 85.2584 62.6803 84.731L62.1812 83.8744C61.8734 83.3462 61.1436 83.2144 60.5508 83.5802Z" fill="#3A556A"/>
</svg>
