<svg width="41" height="41" viewBox="0 0 41 41" fill="none" xmlns="http://www.w3.org/2000/svg">
<path fill-rule="evenodd" clip-rule="evenodd" d="M20.5 41C31.8218 41 41 31.8218 41 20.5C41 9.17816 31.8218 0 20.5 0C9.17816 0 0 9.17816 0 20.5C0 31.8218 9.17816 41 20.5 41Z" fill="white"/>
<path d="M29 15.5608C28.405 15.8138 27.771 15.9815 27.11 16.0629C27.79 15.6694 28.309 15.0509 28.553 14.3054C27.919 14.6718 27.219 14.9307 26.473 15.0751C25.871 14.4537 25.013 14.0688 24.077 14.0688C22.261 14.0688 20.799 15.4978 20.799 17.2495C20.799 17.5016 20.821 17.7439 20.875 17.9746C18.148 17.8457 15.735 16.5787 14.114 14.6486C13.831 15.1245 13.665 15.6694 13.665 16.2559C13.665 17.3571 14.25 18.3333 15.122 18.8985C14.595 18.8888 14.078 18.7405 13.64 18.5068C13.64 18.5165 13.64 18.5291 13.64 18.5417C13.64 20.087 14.777 21.3705 16.268 21.6662C16.001 21.7369 15.71 21.7709 15.408 21.7709C15.198 21.7709 14.986 21.7592 14.787 21.7166C15.212 22.9759 16.418 23.9017 17.852 23.9317C16.736 24.778 15.319 25.2879 13.785 25.2879C13.516 25.2879 13.258 25.2763 13 25.2443C14.453 26.1526 16.175 26.6713 18.032 26.6713C24.068 26.6713 27.368 21.8242 27.368 17.6227C27.368 17.4822 27.363 17.3464 27.356 17.2117C28.007 16.7638 28.554 16.2045 29 15.5608Z" fill="#080809"/>
</svg>
